<?xml version="1.0" encoding="UTF-8" standalone="no"?>
<!-- Creator: CorelDRAW -->

<svg
   xmlns:dc="http://purl.org/dc/elements/1.1/"
   xmlns:cc="http://creativecommons.org/ns#"
   xmlns:rdf="http://www.w3.org/1999/02/22-rdf-syntax-ns#"
   xmlns:svg="http://www.w3.org/2000/svg"
   xmlns="http://www.w3.org/2000/svg"
   xmlns:sodipodi="http://sodipodi.sourceforge.net/DTD/sodipodi-0.dtd"
   xmlns:inkscape="http://www.inkscape.org/namespaces/inkscape"
   xml:space="preserve"
   width="145mm"
   height="255mm"
   style="shape-rendering:geometricPrecision; text-rendering:geometricPrecision; image-rendering:optimizeQuality; fill-rule:evenodd; clip-rule:evenodd"
   viewBox="0 0 145 255"
   id="svg3945"
   version="1.1"
   inkscape:version="0.48.3.1 r9886"
   sodipodi:docname="Pin_in_Lila_L.svg"
   inkscape:export-filename="/home/gyaikhom/work/yaikhom/projects/phenodcc-heatmap/src/main/webapp/heatmap/images/pin_off.png"
   inkscape:export-xdpi="1.9703711"
   inkscape:export-ydpi="1.9703711"><metadata
   id="metadata3957"><rdf:RDF><cc:Work
       rdf:about=""><dc:format>image/svg+xml</dc:format><dc:type
         rdf:resource="http://purl.org/dc/dcmitype/StillImage" /><dc:title></dc:title></cc:Work></rdf:RDF></metadata><sodipodi:namedview
   pagecolor="#ffffff"
   bordercolor="#666666"
   borderopacity="1"
   objecttolerance="10"
   gridtolerance="10"
   guidetolerance="10"
   inkscape:pageopacity="0"
   inkscape:pageshadow="2"
   inkscape:window-width="1600"
   inkscape:window-height="1151"
   id="namedview3955"
   showgrid="false"
   inkscape:zoom="0.26119389"
   inkscape:cx="-403.53915"
   inkscape:cy="451.77167"
   inkscape:window-x="0"
   inkscape:window-y="0"
   inkscape:window-maximized="1"
   inkscape:current-layer="svg3945" />
 <defs
   id="defs3947">
  <style
   type="text/css"
   id="style3949">
   
    .fil0 {fill:#6D609E}
   
  </style>
 </defs>
 <g
   id="Layer_x0020_1"
   style="fill:#bbbbbb;fill-opacity:1"
   inkscape:export-filename="/home/gyaikhom/work/yaikhom/projects/phenodcc-heatmap/src/main/webapp/heatmap/images/pin.png"
   inkscape:export-xdpi="1.9703711"
   inkscape:export-ydpi="1.9703711">
  <metadata
   id="CorelCorpID_0Corel-Layer" />
  <path
   class="fil0"
   d="M1.5996 126.08c0,9.2035 5.6813,18.3498 16.987,27.4398 8.578,6.8737 18.2927,12.3847 29.3146,16.4751l-18.2935 84.0807 30.2802 -80.0474c10.0555,2.784 19.5998,4.1475 28.6328,4.1475 26.0763,0 39.0863,-8.8055 39.0863,-26.4743 0,-12.7254 -5.6813,-23.2923 -17.1567,-31.5865l15.8503 -68.7418c6.192,-2.6699 9.9415,-4.4883 11.1345,-5.3405 3.977,-2.8973 5.9652,-6.7603 5.9652,-11.6458 0,-9.09 -8.0104,-17.2138 -24.0875,-24.3156 -13.9755,-6.0786 -27.0989,-9.1464 -39.3138,-9.1464 -14.7707,0 -22.0993,4.7721 -22.0993,14.3164 0,2.784 2.1586,7.7266 6.4765,14.8277l-27.156 68.06c-8.9759,0.4543 -16.8729,2.9538 -23.6332,7.4991 -7.9534,5.1694 -11.9874,12.0438 -11.9874,20.452zm38.4616 -23.6339l28.1215 -68.9115 15.9638 7.3287 -22.0994 83.3983c-3.9199,-1.2494 -7.7835,-3.1241 -11.6465,-5.6806 -7.2152,-4.8862 -10.8507,-9.6584 -10.8507,-14.3165 0,-0.6817 0.1704,-1.25 0.5113,-1.8184z"
   id="path3953"
   style="fill:#bbbbbb;fill-opacity:1" />
 </g>
</svg>